<?xml version="1.0" encoding="UTF-8"?>
<svg width="32px" height="36px" viewBox="0 0 32 36" version="1.1" xmlns="http://www.w3.org/2000/svg" xmlns:xlink="http://www.w3.org/1999/xlink">
    <!-- Generator: Sketch 47.1 (45422) - http://www.bohemiancoding.com/sketch -->
    <title>account</title>
    <desc>Created with Sketch.</desc>
    <defs></defs>
    <g id="Design" stroke="none" stroke-width="1" fill="none" fill-rule="evenodd">
        <g id="Compte-Création-tags-2" transform="translate(-1000.000000, -57.000000)" fill-rule="nonzero" fill="#8737FA">
            <g id="account" transform="translate(1000.000000, 57.750000)">
                <path d="M23.2745101,25.3355416 C23.2745101,25.3355416 19.2053009,24.1205372 19.2053009,23.3819511 C19.2053009,22.1234356 19.1259447,20.4562468 19.3507873,20.2408947 C19.3777904,20.2155591 19.4031403,20.2028914 19.43345,20.181962 C21.9822166,18.4652037 24.3623513,14.9755082 24.3623513,10.9339385 C24.3623513,5.19764144 20.5290063,0 15.9704339,0 L15.529015,0 C10.9709937,0 7.13709762,5.20149685 7.13709762,10.9377939 C7.13709762,14.9793636 9.51723233,18.4729145 12.065999,20.1896728 C12.0968597,20.2106022 12.1222096,20.2298792 12.1492127,20.2557655 C12.3735042,20.4711176 12.2946991,22.1239863 12.2946991,23.3825018 C12.2946991,24.3386431 8.22548985,25.3360924 8.22548985,25.3360924 C3.75509097,26.7945384 0,29.4762504 0,34.01682 C0,34.4442196 0.34663226,35.25 0.774273968,35.25 L15.75,35.25 L30.725726,35.25 C31.1533677,35.25 31.5,34.4442196 31.5,34.01682 C31.5,29.4756996 27.8341847,26.8562249 23.2745101,25.3355416 Z" id="Shape"></path>
            </g>
        </g>
    </g>
</svg>