<?xml version="1.0" encoding="UTF-8"?>
<svg width="92px" height="90px" viewBox="0 0 92 90" version="1.1" xmlns="http://www.w3.org/2000/svg" xmlns:xlink="http://www.w3.org/1999/xlink">
    <!-- Generator: Sketch 47.1 (45422) - http://www.bohemiancoding.com/sketch -->
    <title>Group</title>
    <desc>Created with Sketch.</desc>
    <defs></defs>
    <g id="Design" stroke="none" stroke-width="1" fill="none" fill-rule="evenodd">
        <g id="HOME" transform="translate(-296.000000, -2203.000000)" fill-rule="nonzero" fill="#8737FA">
            <g id="Group" transform="translate(296.250000, 2202.750000)">
                <path d="M79.7160326,34.2833333 L76.6076087,34.2833333 L76.6076087,12.5033333 C76.6076087,5.84833333 71.1929348,0.403333333 64.575,0.403333333 L12.5339674,0.403333333 C5.91603261,0.403333333 0.501358696,5.84833333 0.501358696,12.5033333 L0.501358696,78.1458333 C0.501358696,84.8008333 5.91603261,90.2458333 12.5339674,90.2458333 L80.2173913,90.2458333 C86.6347826,90.2458333 91.7486413,85.0025 91.7486413,78.65 L91.7486413,46.3833333 C91.7486413,39.6275 86.3339674,34.2833333 79.7160326,34.2833333 Z M12.5339674,82.28 C10.3279891,82.28 8.52309783,80.465 8.52309783,78.2466667 L8.52309783,12.5033333 C8.52309783,10.285 10.3279891,8.47 12.5339674,8.47 L64.575,8.47 C66.7809783,8.47 68.5858696,10.285 68.5858696,12.5033333 L68.5858696,78.65 C68.5858696,79.86 68.786413,81.07 69.1875,82.1791667 L12.5339674,82.1791667 L12.5339674,82.28 Z M83.7269022,78.65 C83.7269022,80.6666667 82.1225543,82.1791667 80.2173913,82.1791667 C78.3122283,82.1791667 76.6076087,80.6666667 76.6076087,78.65 L76.6076087,42.35 L79.7160326,42.35 C81.9220109,42.35 83.7269022,44.165 83.7269022,46.3833333 L83.7269022,78.65 Z" id="Shape"></path>
                <path d="M59.3608696,16.5366667 L17.7480978,16.5366667 C15.5421196,16.5366667 13.7372283,18.3516667 13.7372283,20.57 L13.7372283,44.9716667 C13.7372283,47.19 15.5421196,49.005 17.7480978,49.005 L59.3608696,49.005 C61.5668478,49.005 63.3717391,47.19 63.3717391,44.9716667 L63.3717391,20.57 C63.3717391,18.3516667 61.5668478,16.5366667 59.3608696,16.5366667 Z M55.35,40.9383333 L21.7589674,40.9383333 L21.7589674,24.6033333 L55.35,24.6033333 L55.35,40.9383333 Z" id="Shape"></path>
                <path d="M57.4557065,53.3408333 L17.7480978,53.3408333 C15.5421196,53.3408333 13.7372283,55.1558333 13.7372283,57.3741667 C13.7372283,59.5925 15.5421196,61.4075 17.7480978,61.4075 L57.4557065,61.4075 C59.6616848,61.4075 61.4665761,59.5925 61.4665761,57.3741667 C61.4665761,55.1558333 59.6616848,53.3408333 57.4557065,53.3408333 Z" id="Shape"></path>
                <path d="M57.4557065,64.9366667 L17.7480978,64.9366667 C15.5421196,64.9366667 13.7372283,66.7516667 13.7372283,68.97 C13.7372283,71.1883333 15.5421196,73.0033333 17.7480978,73.0033333 L57.4557065,73.0033333 C59.6616848,73.0033333 61.4665761,71.1883333 61.4665761,68.97 C61.4665761,66.7516667 59.6616848,64.9366667 57.4557065,64.9366667 Z" id="Shape"></path>
            </g>
        </g>
    </g>
</svg>