<?xml version="1.0" encoding="UTF-8"?>
<svg width="35px" height="35px" viewBox="0 0 35 35" version="1.1" xmlns="http://www.w3.org/2000/svg" xmlns:xlink="http://www.w3.org/1999/xlink">
    <!-- Generator: Sketch 47.1 (45422) - http://www.bohemiancoding.com/sketch -->
    <title>clock</title>
    <desc>Created with Sketch.</desc>
    <defs></defs>
    <g id="Design" stroke="none" stroke-width="1" fill="none" fill-rule="evenodd">
        <g id="ARTICLE" transform="translate(-204.000000, -477.000000)" fill-rule="nonzero" fill="#8737FA">
            <g id="clock" transform="translate(204.000000, 477.000000)">
                <path d="M17.25,0 C7.73823626,0 0,7.73823626 0,17.25 C0,26.7617637 7.73823626,34.5 17.25,34.5 C26.7617637,34.5 34.5,26.7617637 34.5,17.25 C34.5,7.73823626 26.7617637,0 17.25,0 Z M17.25,31.8461538 C9.20164286,31.8461538 2.65384615,25.2983571 2.65384615,17.25 C2.65384615,9.20164286 9.20164286,2.65384615 17.25,2.65384615 C25.2983571,2.65384615 31.8461538,9.20164286 31.8461538,17.25 C31.8461538,25.2983571 25.2983571,31.8461538 17.25,31.8461538 Z M17.25,4.1073956 C16.5171593,4.1073956 15.9230769,4.70147802 15.9230769,5.43431868 L15.9230769,15.9230769 L7.96153846,15.9230769 C7.2286978,15.9230769 6.63461538,16.5171593 6.63461538,17.25 C6.63461538,17.9828407 7.2286978,18.5769231 7.96153846,18.5769231 L17.25,18.5769231 C17.9828407,18.5769231 18.5769231,17.9828407 18.5769231,17.25 L18.5769231,5.43431868 C18.5769231,4.70147802 17.9828407,4.1073956 17.25,4.1073956 Z" id="Shape"></path>
            </g>
        </g>
    </g>
</svg>