<?xml version="1.0" encoding="UTF-8"?>
<svg width="86px" height="90px" viewBox="0 0 86 90" version="1.1" xmlns="http://www.w3.org/2000/svg" xmlns:xlink="http://www.w3.org/1999/xlink">
    <!-- Generator: Sketch 47.1 (45422) - http://www.bohemiancoding.com/sketch -->
    <title>events</title>
    <desc>Created with Sketch.</desc>
    <defs></defs>
    <g id="Design" stroke="none" stroke-width="1" fill="none" fill-rule="evenodd">
        <g id="HOME" transform="translate(-658.000000, -2202.000000)" fill-rule="nonzero" fill="#8737FA">
            <g id="events" transform="translate(658.500000, 2202.000000)">
                <path d="M60.1632141,28.2586356 C64.7957005,28.2586356 68.5653756,24.4858559 68.5653756,19.8495542 C68.5653756,15.2132525 64.7966539,11.4404728 60.1632141,11.4404728 C55.5297742,11.4404728 51.7600991,15.2132525 51.7600991,19.8495542 C51.7600991,24.4858559 55.5297742,28.2586356 60.1632141,28.2586356 Z M24.5877393,28.2586356 C29.2202258,28.2586356 32.9899009,24.4858559 32.9899009,19.8495542 C32.9899009,15.2132525 29.2202258,11.4404728 24.5877393,11.4404728 C19.9552529,11.4404728 16.1855778,15.2132525 16.1855778,19.8495542 C16.1855778,24.4858559 19.9542995,28.2586356 24.5877393,28.2586356 Z M76.0513364,0 L8.69771019,0 C3.90219531,0 0,3.90540909 0,8.70487347 L0,80.5451265 C0,85.3445909 3.90219531,89.25 8.69771019,89.25 L76.0513364,89.25 C80.8468513,89.25 84.75,85.3445909 84.75,80.5451265 L84.75,8.70487347 C84.75,3.90540909 80.8478047,0 76.0513364,0 Z M75.2161732,79.7102296 L9.5338268,79.7102296 L9.5338268,39.7611293 L75.2171266,39.7611293 L75.2161732,79.7102296 L75.2161732,79.7102296 Z M75.2161732,30.2194506 L9.5338268,30.2194506 L9.5338268,9.54167869 L75.2171266,9.54167869 L75.2161732,30.2194506 L75.2161732,30.2194506 Z M62.3540875,48.3209692 L55.531681,41.6551525 L34.4571568,63.2575131 L27.0369794,56.1585041 L20.4491051,63.0561836 L34.6888288,76.6797925 L62.3540875,48.3209692 Z" id="Shape"></path>
            </g>
        </g>
    </g>
</svg>