<?xml version="1.0" encoding="UTF-8"?>
<svg width="73px" height="31px" viewBox="0 0 73 31" version="1.1" xmlns="http://www.w3.org/2000/svg" xmlns:xlink="http://www.w3.org/1999/xlink">
    <!-- Generator: Sketch 47.1 (45422) - http://www.bohemiancoding.com/sketch -->
    <title>Shape</title>
    <desc>Created with Sketch.</desc>
    <defs></defs>
    <g id="Design" stroke="none" stroke-width="1" fill="none" fill-rule="evenodd">
        <g id="ARTICLE" transform="translate(-684.000000, -1374.000000)" fill-rule="nonzero" fill="#8737FA">
            <path d="M753.210404,1385.98346 C751.628882,1379.04963 745.378106,1374 738.223602,1374 C734.382764,1374 730.692547,1375.43199 727.906056,1377.99449 C725.496118,1377.31618 722.935559,1376.93934 720.299689,1376.93934 C717.588509,1376.93934 715.02795,1377.31618 712.693323,1377.99449 C709.831522,1375.43199 706.141304,1374 702.375776,1374 C695.221273,1374 688.970497,1378.97426 687.388975,1385.98346 C685.506211,1385.98346 684,1387.49081 684,1389.375 C684,1391.25919 685.506211,1392.76654 687.388975,1392.76654 C688.970497,1399.70037 695.145963,1404.75 702.375776,1404.75 C710.810559,1404.75 717.73913,1397.89154 717.73913,1389.375 C717.73913,1387.56618 717.437888,1385.83272 716.835404,1384.09926 C719.395963,1383.64706 721.881211,1383.72243 723.914596,1384.09926 C723.312112,1385.83272 723.01087,1387.56618 723.01087,1389.375 C723.01087,1397.81618 729.86413,1404.75 738.374224,1404.75 C745.528727,1404.75 751.779503,1399.77574 753.361025,1392.76654 C755.243789,1392.76654 756.75,1391.25919 756.75,1389.375 C756.524068,1387.49081 755.017857,1385.98346 753.210404,1385.98346 Z M738.223602,1397.96691 C733.479037,1397.96691 729.638199,1394.12316 729.638199,1389.375 C729.638199,1384.62684 733.479037,1380.78309 738.223602,1380.78309 C742.968168,1380.78309 746.809006,1384.62684 746.809006,1389.375 C746.809006,1394.12316 742.968168,1397.96691 738.223602,1397.96691 Z M702.375776,1380.78309 C707.120342,1380.78309 710.96118,1384.62684 710.96118,1389.375 C710.96118,1394.12316 707.120342,1397.96691 702.375776,1397.96691 C697.631211,1397.96691 693.790373,1394.12316 693.790373,1389.375 C693.790373,1384.62684 697.631211,1380.78309 702.375776,1380.78309 Z" id="Shape"></path>
        </g>
    </g>
</svg>