<?xml version="1.0" encoding="UTF-8"?>
<svg width="38px" height="34px" viewBox="0 0 38 34" version="1.1" xmlns="http://www.w3.org/2000/svg" xmlns:xlink="http://www.w3.org/1999/xlink">
    <!-- Generator: Sketch 47.1 (45422) - http://www.bohemiancoding.com/sketch -->
    <title>noun_968107_cc</title>
    <desc>Created with Sketch.</desc>
    <defs></defs>
    <g id="Design" stroke="none" stroke-width="1" fill="none" fill-rule="evenodd">
        <g id="ARTICLE" transform="translate(-202.000000, -523.000000)" stroke="#8737FA" stroke-width="3" fill-rule="nonzero">
            <g id="noun_968107_cc" transform="translate(204.000000, 525.000000)">
                <path d="M31.5945373,2.90179124 C27.727479,-0.958071673 21.4621933,-0.958071673 17.5951351,2.90179124 L17.2501523,3.24650662 L16.9051695,2.90179124 C13.0412466,-0.963895777 6.77272859,-0.967754089 2.90404254,2.89317346 C-0.964643514,6.75410102 -0.968504912,13.0177597 2.89541786,16.8834469 L3.24040066,17.2281623 L12.1582061,26.1425019 L12.1582061,26.1425019 L14.2281029,28.2107941 L14.2626012,28.2487128 L15.1457572,29.1346313 C16.3070457,30.2884562 18.1829094,30.2884562 19.3441979,29.1346313 L20.1618072,28.3176559 L20.1618072,28.3176559 L22.3282992,26.1528433 L22.3282992,26.1528433 L31.239205,17.2419509 L31.5841878,16.8972355 C33.4487245,15.0457894 34.498055,12.5282492 34.4999973,9.90166242 C34.5019396,7.2750756 33.4563337,4.75598862 31.5945373,2.90179124 L31.5945373,2.90179124 Z" id="Shape"></path>
            </g>
        </g>
    </g>
</svg>