<?xml version="1.0" encoding="UTF-8"?>
<svg width="39px" height="47px" viewBox="0 0 39 47" version="1.1" xmlns="http://www.w3.org/2000/svg" xmlns:xlink="http://www.w3.org/1999/xlink">
    <!-- Generator: Sketch 47.1 (45422) - http://www.bohemiancoding.com/sketch -->
    <title>Shape</title>
    <desc>Created with Sketch.</desc>
    <defs></defs>
    <g id="Design" stroke="none" stroke-width="1" fill="none" fill-rule="evenodd">
        <g id="ARTICLE" transform="translate(-257.000000, -516.000000)" fill-rule="nonzero" fill="#8737FA">
            <path d="M263.407347,533.487805 C260.01241,533.487805 257.25,536.240616 257.25,539.625 C257.25,543.008268 260.01241,545.762195 263.407347,545.762195 C266.802284,545.762195 269.564694,543.008268 269.564694,539.625 C269.564694,536.240616 266.802284,533.487805 263.407347,533.487805 Z M289.342653,529.02439 C292.73759,529.02439 295.5,526.270463 295.5,522.887195 C295.5,519.502811 292.73759,516.75 289.342653,516.75 C285.947716,516.75 283.185306,519.502811 283.185306,522.887195 C283.185306,526.270463 285.947716,529.02439 289.342653,529.02439 Z M289.342653,550.22561 C285.947716,550.22561 283.185306,552.978421 283.185306,556.362805 C283.185306,559.746073 285.947716,562.5 289.342653,562.5 C292.73759,562.5 295.5,559.746073 295.5,556.362805 C295.5,552.978421 292.73759,550.22561 289.342653,550.22561 Z M270.725634,536.522369 C271.092276,536.522369 271.462836,536.41971 271.793094,536.206582 L283.003384,528.930659 C283.909634,528.342046 284.166003,527.13246 283.575458,526.228619 C282.984352,525.324777 281.770235,525.069805 280.864546,525.65786 L269.654815,532.933226 C268.748566,533.521838 268.492196,534.731982 269.082742,535.635823 C269.45834,536.20993 270.08583,536.522369 270.725634,536.522369 Z M284.228696,552.411567 C284.785097,551.486524 284.483946,550.28754 283.555866,549.73296 L271.731521,542.667375 C270.80512,542.113912 269.601079,542.412402 269.043559,543.337445 C268.487158,544.262488 268.788309,545.462588 269.716389,546.017168 L281.540734,553.082753 C281.855879,553.271332 282.203489,553.360601 282.546621,553.360601 C283.212174,553.360601 283.861494,553.022497 284.228696,552.411567 Z" id="Shape"></path>
        </g>
    </g>
</svg>