<?xml version="1.0" encoding="UTF-8"?>
<svg width="106px" height="86px" viewBox="0 0 106 86" version="1.1" xmlns="http://www.w3.org/2000/svg" xmlns:xlink="http://www.w3.org/1999/xlink">
    <!-- Generator: Sketch 47.1 (45422) - http://www.bohemiancoding.com/sketch -->
    <title>tuto</title>
    <desc>Created with Sketch.</desc>
    <defs></defs>
    <g id="Design" stroke="none" stroke-width="1" fill="none" fill-rule="evenodd">
        <g id="HOME" transform="translate(-996.000000, -2207.000000)" fill-rule="nonzero" fill="#8737FA">
            <g id="tuto" transform="translate(996.000000, 2207.250000)">
                <path d="M96.5543478,0 L66.6684783,0 C61.1821223,0 56.2475054,2.39864666 52.875,6.19403144 C49.5024946,2.39864666 44.5678777,0 39.0815217,0 L9.19565217,0 C4.12425,0 0,4.09435977 0,9.12900729 L0,68.4675547 C0,73.5022022 4.12425,77.5965619 9.19565217,77.5965619 L39.0815217,77.5965619 C43.1138152,77.5965619 46.8736875,79.7521488 48.896731,83.2223127 C49.7185924,84.6304621 51.2335761,85.5 52.875,85.5 C54.5187228,85.5 56.0337065,84.6304621 56.8555679,83.2200304 C58.8763125,79.7521488 62.6361848,77.5965619 66.6684783,77.5965619 L96.5543478,77.5965619 C101.623451,77.5965619 105.75,73.5022022 105.75,68.4675547 L105.75,9.12900729 C105.75,4.09435977 101.623451,0 96.5543478,0 Z M48.2771739,70.6402584 C45.4621549,69.2378146 42.3206902,68.4675547 39.0815217,68.4675547 L9.19565217,68.4675547 L9.19565217,9.12900729 L39.0815217,9.12900729 C44.150625,9.12900729 48.2771739,13.2233671 48.2771739,18.2580146 L48.2771739,70.6402584 Z M96.5543478,68.4675547 L66.6684783,68.4675547 C63.4270109,68.4675547 60.2832473,69.2366735 57.4728261,70.6379761 L57.4728261,18.2580146 C57.4728261,13.2233671 61.5970761,9.12900729 66.6684783,9.12900729 L96.5543478,9.12900729 L96.5543478,68.4675547 Z M62.0706522,22.8225182 L91.9565217,22.8225182 L91.9565217,18.2580146 L62.0706522,18.2580146 L62.0706522,22.8225182 Z M62.0706522,34.2337773 L91.9565217,34.2337773 L91.9565217,29.6692737 L62.0706522,29.6692737 L62.0706522,34.2337773 Z M62.0706522,45.6450364 L91.9565217,45.6450364 L91.9565217,41.0805328 L62.0706522,41.0805328 L62.0706522,45.6450364 Z M62.0706522,57.0562955 L91.9565217,57.0562955 L91.9565217,52.4917919 L62.0706522,52.4917919 L62.0706522,57.0562955 Z M13.7934783,22.8225182 L43.6793478,22.8225182 L43.6793478,18.2580146 L13.7934783,18.2580146 L13.7934783,22.8225182 Z M13.7934783,34.2337773 L43.6793478,34.2337773 L43.6793478,29.6692737 L13.7934783,29.6692737 L13.7934783,34.2337773 Z M13.7934783,45.6450364 L43.6793478,45.6450364 L43.6793478,41.0805328 L13.7934783,41.0805328 L13.7934783,45.6450364 Z M13.7934783,57.0562955 L43.6793478,57.0562955 L43.6793478,52.4917919 L13.7934783,52.4917919 L13.7934783,57.0562955 Z" id="Shape"></path>
            </g>
        </g>
    </g>
</svg>