<?xml version="1.0" encoding="UTF-8"?>
<svg width="35px" height="25px" viewBox="0 0 35 25" version="1.1" xmlns="http://www.w3.org/2000/svg" xmlns:xlink="http://www.w3.org/1999/xlink">
    <!-- Generator: Sketch 47.1 (45422) - http://www.bohemiancoding.com/sketch -->
    <title>herisson</title>
    <desc>Created with Sketch.</desc>
    <defs></defs>
    <g id="Design" stroke="none" stroke-width="1" fill="none" fill-rule="evenodd">
        <g id="HOME-CO" transform="translate(-956.000000, -74.000000)" fill="#8737FA">
            <g id="herisson" transform="translate(956.500000, 74.750000)">
                <g id="Group">
                    <path d="M10.9667063,0.0512289199 L10.9667063,2.7705669 L7.3156956,0.353377584 L7.3156956,2.46841823 L3.6646849,1.25982358 L3.6646849,3.67701289 L0.622175981,4.28131022 L1.53492866,6.09420221 L0.0136741974,8.20924286 L1.53492866,10.0221348 L0.0136741974,12.1371755 L1.83917955,12.1371755 L0.926426873,16.0651081 L2.44768133,16.0651081 L2.44768133,18.4822974 L3.96893579,18.4822974 L3.96893579,20.5973381 L6.09869203,20.2951894 L7.01144471,21.5037841 L8.53269917,20.2951894 L10.6624554,20.8994868 L10.6624554,19.9930408 L13.4007134,20.8994868 L13.4007134,19.6908921 L16.7474732,20.5973381 L16.7474732,19.6908921 L19.1814804,19.6908921 L24.3537455,18.4822974 L27.8050946,17.7953322 C28.5293335,17.6515095 29.2821354,17.7300681 29.9609921,18.0196474 L30.1963119,18.1187522 C30.7442556,18.3518901 31.3612277,18.3767871 31.926745,18.1900593 L33.4337361,17.6919974 C33.54689,17.812379 33.7052659,17.8807413 33.8710907,17.8807799 C34.0299986,17.8809157 34.1824371,17.8182853 34.2948009,17.7066956 C34.4071646,17.595106 34.4702277,17.4437195 34.4700877,17.2859096 C34.4690363,16.958201 34.2010809,16.6931729 33.8710907,16.6934565 C33.6329649,16.6932026 33.417343,16.8331666 33.3220152,17.0498711 L32.9036702,16.5730805 C32.0854787,15.6445172 31.5191705,14.5243917 31.2588169,13.3178516 L31.3515526,10.9290643 L28.3090436,5.18823965 L28.3090436,7.60542897 L25.2665347,3.97964499 L25.2665347,6.39683431 L21.615524,2.77105034 L21.615524,5.18823965 L17.9645133,1.56245568 L17.9645133,3.97964499 L14.6177535,0.353861022 L14.6177535,2.46890167 L10.9667063,0.0512289199 Z M24.3561309,10.3171528 C24.7420305,10.3401161 25.1234638,10.4650848 25.4875547,10.6594268 C25.9730296,10.9186704 26.4281281,11.3123096 26.7164484,11.8515846 C26.819267,12.0422262 26.8117148,12.2728896 26.6966429,12.4564954 C26.5815711,12.6401013 26.3765074,12.7486824 26.1588671,12.7412476 C25.9412267,12.7338128 25.744161,12.6114946 25.6420655,12.4204701 C25.4931895,12.1420099 25.2142157,11.886513 24.9099527,11.7240778 C24.8366891,11.6890286 24.7954326,11.7035317 24.7221812,11.6769426 C24.7185302,12.4425874 24.6834805,13.2517415 24.8980747,13.6810343 C25.0100572,13.8758832 25.0041366,14.1163023 24.8826972,14.3054821 C24.7612577,14.494662 24.5442857,14.6014674 24.3191493,14.582891 C24.0940129,14.5643147 23.897765,14.4234139 23.8094285,14.2169252 C23.2977272,13.1933664 23.3999068,12.0030215 23.4409929,10.9050132 C23.4523436,10.6111033 23.6751108,10.3679872 23.9686856,10.3291179 C24.0975785,10.3121976 24.2274936,10.3097804 24.3561309,10.3170319 L24.3561309,10.3171528 Z M27.9952514,13.4636081 C28.0359613,13.4635999 28.0765693,13.4676489 28.116465,13.4756941 C28.445135,13.5431382 28.6567642,13.862117 28.5894778,14.1886441 C28.5215804,14.5150235 28.2004259,14.7251995 27.8716404,14.6584248 C27.5429704,14.5909807 27.3313412,14.2720019 27.3986276,13.9454748 C27.4572934,13.6647404 27.7065286,13.4635915 27.9952393,13.4639707 L27.9952514,13.4636081 Z" id="Shape"></path>
                    <path d="M11.8395534,21.4974994 C11.6142085,21.5103683 11.4145461,21.646043 11.320844,21.8499731 C11.2271419,22.0539031 11.2547939,22.2925862 11.3926819,22.4700555 L11.8490582,23.0743528 C11.9642865,23.2262794 12.1448104,23.3154722 12.3363343,23.3151049 L13.8575887,23.3151049 C14.0770363,23.318187 14.2811555,23.2036874 14.391785,23.0154503 C14.5024145,22.8272131 14.5024145,22.594402 14.391785,22.4061649 C14.2811555,22.2179277 14.0770363,22.1034282 13.8575887,22.1065102 L12.6405852,22.1065102 L12.367234,21.7453822 C12.2453266,21.5789032 12.0464773,21.4854919 11.8395534,21.4974994 L11.8395534,21.4974994 Z" id="Shape"></path>
                    <path d="M5.4502847,21.4974994 C5.22493977,21.5103683 5.02527737,21.646043 4.93157528,21.8499731 C4.83787319,22.0539031 4.86552514,22.2925862 5.00341316,22.4700555 L5.91616584,23.6786502 C6.03139411,23.8305768 6.21191799,23.9197695 6.4034419,23.9194022 L7.31619457,23.9194022 C7.53564217,23.9224843 7.73976132,23.8079847 7.85039082,23.6197476 C7.96102031,23.4315105 7.96102031,23.1986994 7.85039082,23.0104622 C7.73976132,22.8222251 7.53564217,22.7077255 7.31619457,22.7108076 L6.70769279,22.7108076 L5.97796528,21.7453822 C5.85605789,21.5789032 5.65720853,21.4854919 5.4502847,21.4974994 L5.4502847,21.4974994 Z" id="Shape"></path>
                    <path d="M23.4010873,20.2889047 C23.1757424,20.3017737 22.97608,20.4374484 22.8823779,20.6413784 C22.7886758,20.8453085 22.8163278,21.0839915 22.9542158,21.2614609 L23.8669685,22.4700555 C23.9821967,22.6219821 24.1627206,22.7111749 24.3542445,22.7108076 L25.7233735,22.7108076 C25.9428211,22.7138897 26.1469403,22.5993901 26.2575698,22.4111529 C26.3681993,22.2229158 26.3681993,21.9901047 26.2575698,21.8018676 C26.1469403,21.6136304 25.9428211,21.4991308 25.7233735,21.5022129 L24.6584954,21.5022129 L23.9287679,20.5367875 C23.8068605,20.3703085 23.6080111,20.2768972 23.4010873,20.2889047 L23.4010873,20.2889047 Z" id="Shape"></path>
                    <path d="M18.9894494,20.5910534 C18.7641045,20.6039223 18.564442,20.739597 18.47074,20.9435271 C18.3770379,21.1474571 18.4046898,21.3861402 18.5425778,21.5636095 L19.4553305,22.7722042 C19.5705588,22.9241308 19.7510827,23.0133235 19.9426066,23.0129562 L20.8553593,23.0129562 C21.0748069,23.0160383 21.278926,22.9015387 21.3895555,22.7133016 C21.500185,22.5250645 21.500185,22.2922534 21.3895555,22.1040162 C21.278926,21.9157791 21.0748069,21.8012795 20.8553593,21.8043616 L20.2468575,21.8043616 L19.51713,20.8389362 C19.3952226,20.6724572 19.1963732,20.5790459 18.9894494,20.5910534 L18.9894494,20.5910534 Z" id="Shape"></path>
                </g>
            </g>
        </g>
    </g>
</svg>